{"title":"Edge of Darkness TS XviD Ghostman-Ã‚Âº(ÃƒË†LÃƒÅ½TE)Ã‚ÂºÃ‚Â®G[ExtraTorrent]","uid":5344970,"size":738926592,"categoryP":"video","categoryS":"movies","magnet":"?xt=urn:btih:a053c9ac8db30bfdc00b0bda59f7a047d26f5db1&amp;dn=Edge+of+Darkness+TS+XviD+Ghostman-%C3%82%C2%BA%28%C3%83%CB%86L%C3%83%C5%BDTE%29%C3%82%C2%BA%C3%82%C2%AEG%5BExtraTorrent%5D&amp;tr=udp%3A%2F%2Ftracker.openbittorrent.com%3A80&amp;tr=udp%3A%2F%2Fopen.demonii.com%3A1337&amp;tr=udp%3A%2F%2Ftracker.coppersurfer.tk%3A6969&amp;tr=udp%3A%2F%2Fexodus.desync.com%3A6969","seeders":1,"leechers":0,"uploader":"raymondhome","files":-1,"time":1265604509,"description":"Love for All and Sharing is the first step to solving all the problems of humanity.\n\nWebsites I want to share.\n\n    &lt;a href=&quot;\nhttp://www.shareintl.org/&quot; rel=&quot;nofollow&quot; target=&quot;_NEW&quot;&gt;\nhttp://www.shareintl.org/&lt;/a&gt;\n\n    &lt;a href=&quot;\nhttp://www.lightmiddleway.com&quot; rel=&quot;nofollow&quot; target=&quot;_NEW&quot;&gt;\nhttp://www.lightmiddleway.com&lt;/a&gt;\n\n\nThank you very much\n\nNo credit for me...credit to EVERYONE for sharing\n &lt;a href=&quot;\nhttp://thepiratebay.se/user/raymondhome/&quot; rel=&quot;nofollow&quot; target=&quot;_NEW&quot;&gt;\nhttp://thepiratebay.se/user/raymondhome/&lt;/a&gt;\n\nDuration : 1h 48mn\nVideo\nID : 0\nFormat : MPEG-4 Visual\nFormat profile : AdvancedSimple@L5\nFormat settings, BVOP : Yes\nFormat settings, QPel : No\nFormat settings, GMC : No warppoints\nFormat settings, Matrix : Default (H.263)\nMuxing mode : Packed bitstream\nCodec ID : XVID\nCodec ID/Hint : XviD\nDuration : 1h 48mn\nBit rate : 692 Kbps\nWidth : 640 pixels\nHeight : 272 pixels\nDisplay aspect ratio : 2.35:1\nFrame rate : 23.976 fps\nResolution : 24 bits\nColorimetry : 4:2:0\nScan type : Progressive\nBits/(Pixel*Frame) : 0.166\nStream size : 538 MiB (76%)\nWriting library : XviD 1.2.1 (UTC 2008-12-04)\nAudio\nID : 1\nFormat : MPEG Audio\nFormat version : Version 1\nFormat profile : Layer 3\nCodec ID : 55\nCodec ID/Hint : MP3\nDuration : 1h 48mn\nBit rate mode : Variable\nBit rate : 201 Kbps\nChannel(s) : 2 channels\nSampling rate : 48.0 KHz\nResolution : 16 bits\nStream size : 156 MiB (22%)\nAlignment : Aligned on interleaves\nInterleave, duration : 24 ms (0.58 video frame)\nInterleave, preload duration : 572 ms\n\nvideo source from :ELEKTRI4KA\nAudio from : Greenfrogr\nEncoder: ghostman\n\ncredit ghostman BIG TIME &amp; to all the people who made it possible for me to share this with everyone\n\n*****help what we can with haiti...the world is ONE big family*****","torrent":{"xt":"urn:btih:a053c9ac8db30bfdc00b0bda59f7a047d26f5db1","amp;dn":"Edge+of+Darkness+TS+XviD+Ghostman-%C3%82%C2%BA%28%C3%83%CB%86L%C3%83%C5%BDTE%29%C3%82%C2%BA%C3%82%C2%AEG%5BExtraTorrent%5D","amp;tr":["udp%3A%2F%2Ftracker.openbittorrent.com%3A80","udp%3A%2F%2Fopen.demonii.com%3A1337","udp%3A%2F%2Ftracker.coppersurfer.tk%3A6969","udp%3A%2F%2Fexodus.desync.com%3A6969"],"infoHash":"a053c9ac8db30bfdc00b0bda59f7a047d26f5db1","infoHashBuffer":{"type":"Buffer","data":[160,83,201,172,141,179,11,253,192,11,11,218,89,247,160,71,210,111,93,177]},"announce":[],"urlList":[]}}